<svg viewBox="0 0 330 200" xmlns="http://www.w3.org/2000/svg"><g><g><g><g><g><line x1="61.953125" y1="178" x2="56.953125" y2="178" style="visibility: inherit;" fill="rgb(0, 0, 0)" stroke="rgb(204, 204, 204)" stroke-width="1px"></line><line x1="61.953125" y1="161.8181818181818" x2="56.953125" y2="161.8181818181818" style="visibility: inherit;" fill="rgb(0, 0, 0)" stroke="rgb(204, 204, 204)" stroke-width="1px"></line><line x1="61.953125" y1="145.63636363636363" x2="56.953125" y2="145.63636363636363" style="visibility: inherit;" fill="rgb(0, 0, 0)" stroke="rgb(204, 204, 204)" stroke-width="1px"></line><line x1="61.953125" y1="129.45454545454547" x2="56.953125" y2="129.45454545454547" style="visibility: inherit;" fill="rgb(0, 0, 0)" stroke="rgb(204, 204, 204)" stroke-width="1px"></line><line x1="61.953125" y1="113.27272727272727" x2="56.953125" y2="113.27272727272727" style="visibility: inherit;" fill="rgb(0, 0, 0)" stroke="rgb(204, 204, 204)" stroke-width="1px"></line><line x1="61.953125" y1="97.09090909090908" x2="56.953125" y2="97.09090909090908" style="visibility: inherit;" fill="rgb(0, 0, 0)" stroke="rgb(204, 204, 204)" stroke-width="1px"></line><line x1="61.953125" y1="80.90909090909089" x2="56.953125" y2="80.90909090909089" style="visibility: inherit;" fill="rgb(0, 0, 0)" stroke="rgb(204, 204, 204)" stroke-width="1px"></line><line x1="61.953125" y1="64.72727272727275" x2="56.953125" y2="64.72727272727275" style="visibility: inherit;" fill="rgb(0, 0, 0)" stroke="rgb(204, 204, 204)" stroke-width="1px"></line><line x1="61.953125" y1="48.54545454545454" x2="56.953125" y2="48.54545454545454" style="visibility: inherit;" fill="rgb(0, 0, 0)" stroke="rgb(204, 204, 204)" stroke-width="1px"></line><line x1="61.953125" y1="32.363636363636374" x2="56.953125" y2="32.363636363636374" style="visibility: inherit;" fill="rgb(0, 0, 0)" stroke="rgb(204, 204, 204)" stroke-width="1px"></line><line x1="61.953125" y1="16.181818181818187" x2="56.953125" y2="16.181818181818187" style="visibility: inherit;" fill="rgb(0, 0, 0)" stroke="rgb(204, 204, 204)" stroke-width="1px"></line><line x1="61.953125" y1="0" x2="56.953125" y2="0" style="visibility: inherit;" fill="rgb(0, 0, 0)" stroke="rgb(204, 204, 204)" stroke-width="1px"></line></g><g transform="translate(51.953125, 0)"><text x="0" y="178" dx="0em" dy="0.3em" style="text-anchor: end; visibility: hidden; font-family: Roboto, sans-serif; font-size: 12px; font-weight: 200;" fill="rgb(50, 49, 63)" stroke="none" stroke-width="1px">-0.02</text><text x="0" y="161.8181818181818" dx="0em" dy="0.3em" style="text-anchor: end; visibility: inherit; font-family: Roboto, sans-serif; font-size: 12px; font-weight: 200;" fill="rgb(50, 49, 63)" stroke="none" stroke-width="1px">0</text><text x="0" y="145.63636363636363" dx="0em" dy="0.3em" style="text-anchor: end; visibility: hidden; font-family: Roboto, sans-serif; font-size: 12px; font-weight: 200;" fill="rgb(50, 49, 63)" stroke="none" stroke-width="1px">0.02</text><text x="0" y="129.45454545454547" dx="0em" dy="0.3em" style="text-anchor: end; visibility: inherit; font-family: Roboto, sans-serif; font-size: 12px; font-weight: 200;" fill="rgb(50, 49, 63)" stroke="none" stroke-width="1px">0.04</text><text x="0" y="113.27272727272727" dx="0em" dy="0.3em" style="text-anchor: end; visibility: hidden; font-family: Roboto, sans-serif; font-size: 12px; font-weight: 200;" fill="rgb(50, 49, 63)" stroke="none" stroke-width="1px">0.06</text><text x="0" y="97.09090909090908" dx="0em" dy="0.3em" style="text-anchor: end; visibility: inherit; font-family: Roboto, sans-serif; font-size: 12px; font-weight: 200;" fill="rgb(50, 49, 63)" stroke="none" stroke-width="1px">0.08</text><text x="0" y="80.90909090909089" dx="0em" dy="0.3em" style="text-anchor: end; visibility: hidden; font-family: Roboto, sans-serif; font-size: 12px; font-weight: 200;" fill="rgb(50, 49, 63)" stroke="none" stroke-width="1px">0.1</text><text x="0" y="64.72727272727275" dx="0em" dy="0.3em" style="text-anchor: end; visibility: inherit; font-family: Roboto, sans-serif; font-size: 12px; font-weight: 200;" fill="rgb(50, 49, 63)" stroke="none" stroke-width="1px">0.12</text><text x="0" y="48.54545454545454" dx="0em" dy="0.3em" style="text-anchor: end; visibility: hidden; font-family: Roboto, sans-serif; font-size: 12px; font-weight: 200;" fill="rgb(50, 49, 63)" stroke="none" stroke-width="1px">0.14</text><text x="0" y="32.363636363636374" dx="0em" dy="0.3em" style="text-anchor: end; visibility: inherit; font-family: Roboto, sans-serif; font-size: 12px; font-weight: 200;" fill="rgb(50, 49, 63)" stroke="none" stroke-width="1px">0.16</text><text x="0" y="16.181818181818187" dx="0em" dy="0.3em" style="text-anchor: end; visibility: hidden; font-family: Roboto, sans-serif; font-size: 12px; font-weight: 200;" fill="rgb(50, 49, 63)" stroke="none" stroke-width="1px">0.18</text><text x="0" y="0" dx="0em" dy="0.3em" style="text-anchor: end; visibility: hidden; font-family: Roboto, sans-serif; font-size: 12px; font-weight: 200;" fill="rgb(50, 49, 63)" stroke="none" stroke-width="1px">0.2</text></g><line x1="61.953125" y1="0" x2="61.953125" y2="178" fill="rgb(0, 0, 0)" stroke="rgb(204, 204, 204)" stroke-width="1px"></line></g></g><g transform="translate(61, 0)" clip-path="url(#clip_0)"><clipPath id="clip_0"><rect width="268" height="178"></rect></clipPath><g><g><g><line x1="0" y1="0" x2="0" y2="178" fill="rgb(0, 0, 0)" stroke="rgb(60, 60, 60)" stroke-width="1px" opacity="0.25"></line><line x1="26.8046875" y1="0" x2="26.8046875" y2="178" fill="rgb(0, 0, 0)" stroke="rgb(60, 60, 60)" stroke-width="1px" opacity="0.25"></line><line x1="53.609375" y1="0" x2="53.609375" y2="178" fill="rgb(0, 0, 0)" stroke="rgb(60, 60, 60)" stroke-width="1px" opacity="0.25"></line><line x1="80.4140625" y1="0" x2="80.4140625" y2="178" fill="rgb(0, 0, 0)" stroke="rgb(60, 60, 60)" stroke-width="1px" opacity="0.25"></line><line x1="107.21875" y1="0" x2="107.21875" y2="178" fill="rgb(0, 0, 0)" stroke="rgb(60, 60, 60)" stroke-width="1px" opacity="0.25"></line><line x1="134.0234375" y1="0" x2="134.0234375" y2="178" fill="rgb(0, 0, 0)" stroke="rgb(60, 60, 60)" stroke-width="1px" opacity="0.25"></line><line x1="160.828125" y1="0" x2="160.828125" y2="178" fill="rgb(0, 0, 0)" stroke="rgb(60, 60, 60)" stroke-width="1px" opacity="0.25"></line><line x1="187.6328125" y1="0" x2="187.6328125" y2="178" fill="rgb(0, 0, 0)" stroke="rgb(60, 60, 60)" stroke-width="1px" opacity="0.25"></line><line x1="214.4375" y1="0" x2="214.4375" y2="178" fill="rgb(0, 0, 0)" stroke="rgb(60, 60, 60)" stroke-width="1px" opacity="0.25"></line><line x1="241.2421875" y1="0" x2="241.2421875" y2="178" fill="rgb(0, 0, 0)" stroke="rgb(60, 60, 60)" stroke-width="1px" opacity="0.25"></line><line x1="268.046875" y1="0" x2="268.046875" y2="178" fill="rgb(0, 0, 0)" stroke="rgb(60, 60, 60)" stroke-width="1px" opacity="0.25"></line></g><g><line x1="0" y1="178" x2="268.046875" y2="178" fill="rgb(0, 0, 0)" stroke="rgb(60, 60, 60)" stroke-width="1px" opacity="0.25"></line><line x1="0" y1="161.8181818181818" x2="268.046875" y2="161.8181818181818" fill="rgb(0, 0, 0)" stroke="rgb(60, 60, 60)" stroke-width="1px" opacity="0.25"></line><line x1="0" y1="145.63636363636363" x2="268.046875" y2="145.63636363636363" fill="rgb(0, 0, 0)" stroke="rgb(60, 60, 60)" stroke-width="1px" opacity="0.25"></line><line x1="0" y1="129.45454545454547" x2="268.046875" y2="129.45454545454547" fill="rgb(0, 0, 0)" stroke="rgb(60, 60, 60)" stroke-width="1px" opacity="0.25"></line><line x1="0" y1="113.27272727272727" x2="268.046875" y2="113.27272727272727" fill="rgb(0, 0, 0)" stroke="rgb(60, 60, 60)" stroke-width="1px" opacity="0.25"></line><line x1="0" y1="97.09090909090908" x2="268.046875" y2="97.09090909090908" fill="rgb(0, 0, 0)" stroke="rgb(60, 60, 60)" stroke-width="1px" opacity="0.25"></line><line x1="0" y1="80.90909090909089" x2="268.046875" y2="80.90909090909089" fill="rgb(0, 0, 0)" stroke="rgb(60, 60, 60)" stroke-width="1px" opacity="0.25"></line><line x1="0" y1="64.72727272727275" x2="268.046875" y2="64.72727272727275" fill="rgb(0, 0, 0)" stroke="rgb(60, 60, 60)" stroke-width="1px" opacity="0.25"></line><line x1="0" y1="48.54545454545454" x2="268.046875" y2="48.54545454545454" fill="rgb(0, 0, 0)" stroke="rgb(60, 60, 60)" stroke-width="1px" opacity="0.25"></line><line x1="0" y1="32.363636363636374" x2="268.046875" y2="32.363636363636374" fill="rgb(0, 0, 0)" stroke="rgb(60, 60, 60)" stroke-width="1px" opacity="0.25"></line><line x1="0" y1="16.181818181818187" x2="268.046875" y2="16.181818181818187" fill="rgb(0, 0, 0)" stroke="rgb(60, 60, 60)" stroke-width="1px" opacity="0.25"></line><line x1="0" y1="0" x2="268.046875" y2="0" fill="rgb(0, 0, 0)" stroke="rgb(60, 60, 60)" stroke-width="1px" opacity="0.25"></line></g></g></g><g><g><line x1="0" y1="161.8181818181818" x2="268.046875" y2="161.8181818181818" fill="rgb(0, 0, 0)" stroke="rgb(153, 153, 153)" stroke-width="1.5px"></line></g></g><g><g><line x1="26.8046875" y1="0" x2="26.8046875" y2="178" fill="rgb(0, 0, 0)" stroke="rgb(153, 153, 153)" stroke-width="1.5px"></line></g></g><g><g><g><g><g><path stroke="rgb(255, 112, 67)" stroke-width="2px" d="M28.118117187499998,154.03980629010633L29.4583515625,152.47369059213352L30.7985859375,150.71580562502118L32.1388203125,148.78871213296742L33.479054687499996,146.71894815962582L34.8192890625,144.53376916575726L36.1595234375,142.25860921486014L37.4997578125,139.91553415013166L38.8399921875,137.52261430814136L40.1802265625,135.0939781393525L41.520460937500005,132.64026633562167L42.8606953125,130.16924803045876L44.2009296875,127.68645887329836L45.5411640625,125.19576191198459L46.8813984375,122.69980764071721L48.221632812500005,120.20038917664569L49.5618671875,117.6987054120183L50.9021015625,115.19555124203099L52.242335937499995,112.69144481635175L53.582570312499996,110.18672883225032L54.9228046875,107.6816227213122L56.2630390625,105.17626547944766L57.6032734375,102.67075118099113L58.9435078125,100.16513496240388L60.283742187499996,97.65945683762851L61.6239765625,95.15373725842679L62.9642109375,92.64799407812843L64.30444531250001,90.14223605330885L65.6446796875,87.63646630016956L66.9849140625,85.13069167511874L68.3251484375,82.62491156792024L69.6653828125,80.11913049407903L71.00561718750001,77.61334637579296L72.34585156249999,75.10756281021074L73.6860859375,72.60177955710581L75.02632031249999,70.09599406872147L76.3665546875,67.59020964355611L77.7067890625,65.08442344090798L79.0470234375,62.57863858056786L80.3872578125,60.07285211284502L81.7274921875,57.56706950235691L83.0677265625,55.061284383116096L84.40796093750001,52.555497758302096L85.7481953125,50.049710229951216L87.08842968750001,47.54392698192012L88.4286640625,45.0381414794538L89.7688984375,42.53235462428464L91.1091328125,40.026571780026416L92.4493671875,37.52078651974213L93.7896015625,35.01499980983321L95.1298359375,32.50921223014411L96.4700703125,30.727931427922243L97.81030468750001,30.105852346399192L99.1505390625,30.17929911985009L100.4907734375,30.67005658372678L101.8310078125,31.411200461858698L103.1712421875,32.30258101110131L104.51147656250001,33.284098740452755L105.85171093749999,34.31970360042715L107.1919453125,35.38775591621769L108.53217968749999,36.475281528055525L109.8724140625,37.57448629496418L111.2126484375,38.68069855491527L112.5528828125,39.79112013324952L113.8931171875,40.90406248005596L115.2333515625,42.018522110503405L116.5735859375,43.1338872885778L117.91382031250001,44.24980061778601L119.2540546875,45.36603801511686L120.59428906250001,46.48246985332129L121.9345234375,47.5990231786075L123.2747578125,48.715644573585166L124.6149921875,49.83231163293533L125.9552265625,50.949001268351374L127.2954609375,52.06570927196458L128.6356953125,53.1824234739384L129.9759296875,54.29914139492867L131.3161640625,55.41586636988636L132.6563984375,56.53259075466692L133.9966328125,57.649319607898825L135.3368671875,58.76604631964388L136.6771015625,59.882774157775664L138.0173359375,60.999502671739485L139.3575703125,62.11623159120254L140.6978046875,63.232960753965095L142.03803906250002,64.34969006270738L143.3782734375,65.4664170477587L144.7185078125,66.58314504987422L146.0587421875,67.69987366222828L147.39897656250002,68.81660264072549L148.7392109375,69.93333183890854L150.07944531249998,71.05006116890313L151.41967968749998,72.16679057798463L152.7599140625,73.28351762323946L154.1001484375,74.40024566147711L155.4403828125,75.51697429550444L156.78061718749998,76.6337032870056L158.1208515625,77.75043249299102L159.4610859375,78.86716182766705L160.8013203125,79.98388882827858L162.1415546875,81.10061683973025L163.4817890625,82.21734545768601L164.8220234375,83.3340744395442L166.1622578125,84.45080363974387L167.5024921875,85.56753297094842L168.8427265625,86.6842623807559L170.1829609375,87.80098942644631L171.5231953125,88.91771746494531L172.8634296875,90.03444609912945L174.2036640625,91.15117509072469L175.54389843750002,92.26790429676657L176.8841328125,93.38463363147646L178.2243671875,94.50136304338712L179.5646015625,95.61809009033946L180.90483593750002,96.73481812959562L182.2450703125,97.85154676423407L183.58530468749998,98.96827575610186L184.92553906249998,100.08500496230731L186.2657734375,101.20173429711532L187.6060078125,102.31846370908487L188.9462421875,103.43519075607253L190.28647656249998,104.55191879534989L191.6267109375,105.66864743000104L192.9669453125,106.78537642187646L194.3071796875,107.9021056280865L195.6474140625,109.01883496289724L196.9876484375,110.13556316922903L198.3278828125,111.25229190411285L199.6681171875,112.25288050653896L201.0083515625,112.8532336679946L202.3485859375,113.213445564868L203.6888203125,113.42957270299205L205.0290546875,113.55924898586647L206.3692890625,113.63705475559111L207.7095234375,113.68373821742591L209.04975781250002,113.71174829452679L210.3899921875,113.72855434078731L211.7302265625,113.73863796854361L213.0704609375,113.74468814519741L214.41069531250002,113.74831825118969L215.7509296875,113.75049631478505L217.09116406249998,113.75180315294226L218.43139843749998,113.75258725583659L219.7716328125,113.7530577175732L221.1118671875,113.75333999461516L222.4521015625,113.75350936084033L223.79233593749998,113.75361098057542L225.1325703125,113.75367195241651L226.4728046875,113.75370853552116L227.8130390625,113.75373048538393L229.1532734375,113.75374365530159L230.4935078125,113.75375155725217L231.8337421875,113.75375629842256L233.1739765625,113.75375914312477L234.5142109375,113.7537608499461L235.8544453125,113.7537618740389L237.1946796875,113.75376248849457L238.5349140625,113.753762857168L239.8751484375,113.75376307837202L241.2153828125,113.75376321109447L242.55561718750002,113.7537632907279L243.8958515625,113.75376333850801" style="fill: none;" fill="none"></path></g></g></g></g><g opacity="0.2"><g><g><g><path stroke="rgb(255, 112, 67)" stroke-width="2px" d="M28.118117187499998,154.03980629010633L29.4583515625,151.53402117334983L30.7985859375,149.02823605659333L32.1388203125,146.5224501863122L33.479054687499996,144.01666431603107L34.8192890625,141.51087995279917L36.1595234375,139.00509408251807L37.4997578125,136.4993082122369L38.8399921875,133.99352234195578L40.1802265625,131.48773647167465L41.520460937500005,128.98195361549202L42.8606953125,126.4761677452109L44.2009296875,123.97038187492979L45.5411640625,121.46459600464864L46.8813984375,118.95881013436751L48.221632812500005,116.45302426408637L49.5618671875,113.94723839380525L50.9021015625,111.44145553762262L52.242335937499995,108.93566665324299L53.582570312499996,106.42988379706037L54.9228046875,103.92410094087774L56.2630390625,101.4183120564981L57.6032734375,98.91252920031548L58.9435078125,96.40674031593583L60.283742187499996,93.9009574597532L61.6239765625,91.39516857537357L62.9642109375,88.88938571919094L64.30444531250001,86.38360286300832L65.6446796875,83.87781397862868L66.9849140625,81.37203112244606L68.3251484375,78.86624223806642L69.6653828125,76.3604593818838L71.00561718750001,73.85467049750416L72.34585156249999,71.34888764132154L73.6860859375,68.84310478513892L75.02632031249999,66.33731590075928L76.3665546875,63.831533044576645L77.7067890625,61.325744160197L79.0470234375,58.819961304014384L80.3872578125,56.31417241963474L81.7274921875,53.80839559164915L83.0677265625,51.30260670726951L84.40796093750001,48.796817822889864L85.7481953125,46.291028938510216L87.08842968750001,43.78525211052462L88.4286640625,41.27946322614497L89.7688984375,38.77367434176532L91.1091328125,36.26789751377974L92.4493671875,33.762108629400096L93.7896015625,31.25631974502045L95.1298359375,28.750530860640804L96.4700703125,28.056010224602442L97.81030468750001,29.17273372411728L99.1505390625,30.28946928002618L100.4907734375,31.406192779541016L101.8310078125,32.52291627905587L103.1712421875,33.63965183496475L104.51147656250001,34.75637533447961L105.85171093749999,35.87311089038849L107.1919453125,36.98983438990334L108.53217968749999,38.106569945812225L109.8724140625,39.22329344532708L111.2126484375,40.34001694484192L112.5528828125,41.45675250075082L113.8931171875,42.57347600026566L115.2333515625,43.69021155617455L116.5735859375,44.806935055689394L117.91382031250001,45.92367061159829L119.2540546875,47.04039411111313L120.59428906250001,48.15711761062797L121.9345234375,49.27385316653687L123.2747578125,50.39057666605171L124.6149921875,51.5073122219606L125.9552265625,52.624035721475444L127.2954609375,53.74077127738434L128.6356953125,54.85749477689918L129.9759296875,55.974218276414014L131.3161640625,57.09095383232292L132.6563984375,58.20767733183775L133.9966328125,59.324412887746654L135.3368671875,60.44113638726149L136.6771015625,61.557865914973355L138.0173359375,62.674595442685224L139.3575703125,63.79132497039709L140.6978046875,64.90805449810897L142.03803906250002,66.02478402582084L143.3782734375,67.14150752533567L144.7185078125,68.25823705304754L146.0587421875,69.3749665807594L147.39897656250002,70.49169610847127L148.7392109375,71.60842563618314L150.07944531249998,72.72515516389501L151.41967968749998,73.84188469160688L152.7599140625,74.95860819112171L154.1001484375,76.07533771883358L155.4403828125,77.19206724654543L156.78061718749998,78.3087967742573L158.1208515625,79.42552630196917L159.4610859375,80.54225582968104L160.8013203125,81.6589793291959L162.1415546875,82.77570885690777L163.4817890625,83.89243838461964L164.8220234375,85.0091679123315L166.1622578125,86.12589744004337L167.5024921875,87.24262696775524L168.8427265625,88.35935649546711L170.1829609375,89.47607999498193L171.5231953125,90.5928095226938L172.8634296875,91.70953905040567L174.2036640625,92.82626857811753L175.54389843750002,93.9429981058294L176.8841328125,95.05972763354127L178.2243671875,96.17645716125314L179.5646015625,97.29318066076799L180.90483593750002,98.40991018847986L182.2450703125,99.52663971619172L183.58530468749998,100.64336924390359L184.92553906249998,101.76009877161546L186.2657734375,102.87682829932733L187.6060078125,103.9935578270392L188.9462421875,105.11028132655404L190.28647656249998,106.22701085426591L191.6267109375,107.34374038197778L192.9669453125,108.46046990968965L194.3071796875,109.57719943740152L195.6474140625,110.69392896511339L196.9876484375,111.81065547872674L198.3278828125,112.92738500643861L199.6681171875,113.75376341017811L201.0083515625,113.75376341017811L202.3485859375,113.75376341017811L203.6888203125,113.75376341017811L205.0290546875,113.75376341017811L206.3692890625,113.75376341017811L207.7095234375,113.75376341017811L209.04975781250002,113.75376341017811L210.3899921875,113.75376341017811L211.7302265625,113.75376341017811L213.0704609375,113.75376341017811L214.41069531250002,113.75376341017811L215.7509296875,113.75376341017811L217.09116406249998,113.75376341017811L218.43139843749998,113.75376341017811L219.7716328125,113.75376341017811L221.1118671875,113.75376341017811L222.4521015625,113.75376341017811L223.79233593749998,113.75376341017811L225.1325703125,113.75376341017811L226.4728046875,113.75376341017811L227.8130390625,113.75376341017811L229.1532734375,113.75376341017811L230.4935078125,113.75376341017811L231.8337421875,113.75376341017811L233.1739765625,113.75376341017811L234.5142109375,113.75376341017811L235.8544453125,113.75376341017811L237.1946796875,113.75376341017811L238.5349140625,113.75376341017811L239.8751484375,113.75376341017811L241.2153828125,113.75376341017811L242.55561718750002,113.75376341017811L243.8958515625,113.75376341017811" style="fill: none;" fill="none"></path></g></g></g></g></g></g><g transform="translate(61, 178)" clip-path="url(#clip_1)"><clipPath id="clip_1"><rect width="268" height="22"></rect></clipPath><g><g><line x1="0" y1="0" x2="0" y2="5" style="visibility: inherit;" fill="rgb(0, 0, 0)" stroke="rgb(204, 204, 204)" stroke-width="1px"></line><line x1="26.8046875" y1="0" x2="26.8046875" y2="5" style="visibility: inherit;" fill="rgb(0, 0, 0)" stroke="rgb(204, 204, 204)" stroke-width="1px"></line><line x1="53.609375" y1="0" x2="53.609375" y2="5" style="visibility: inherit;" fill="rgb(0, 0, 0)" stroke="rgb(204, 204, 204)" stroke-width="1px"></line><line x1="80.4140625" y1="0" x2="80.4140625" y2="5" style="visibility: inherit;" fill="rgb(0, 0, 0)" stroke="rgb(204, 204, 204)" stroke-width="1px"></line><line x1="107.21875" y1="0" x2="107.21875" y2="5" style="visibility: inherit;" fill="rgb(0, 0, 0)" stroke="rgb(204, 204, 204)" stroke-width="1px"></line><line x1="134.0234375" y1="0" x2="134.0234375" y2="5" style="visibility: inherit;" fill="rgb(0, 0, 0)" stroke="rgb(204, 204, 204)" stroke-width="1px"></line><line x1="160.828125" y1="0" x2="160.828125" y2="5" style="visibility: inherit;" fill="rgb(0, 0, 0)" stroke="rgb(204, 204, 204)" stroke-width="1px"></line><line x1="187.6328125" y1="0" x2="187.6328125" y2="5" style="visibility: inherit;" fill="rgb(0, 0, 0)" stroke="rgb(204, 204, 204)" stroke-width="1px"></line><line x1="214.4375" y1="0" x2="214.4375" y2="5" style="visibility: inherit;" fill="rgb(0, 0, 0)" stroke="rgb(204, 204, 204)" stroke-width="1px"></line><line x1="241.2421875" y1="0" x2="241.2421875" y2="5" style="visibility: inherit;" fill="rgb(0, 0, 0)" stroke="rgb(204, 204, 204)" stroke-width="1px"></line><line x1="268.046875" y1="0" x2="268.046875" y2="5" style="visibility: inherit;" fill="rgb(0, 0, 0)" stroke="rgb(204, 204, 204)" stroke-width="1px"></line></g><g transform="translate(0, 8)"><text x="0" y="0" dx="0em" dy="0.95em" style="text-anchor: middle; visibility: hidden; font-family: Roboto, sans-serif; font-size: 12px; font-weight: 200;" fill="rgb(50, 49, 63)" stroke="none" stroke-width="1px">-1k</text><text x="26.8046875" y="0" dx="0em" dy="0.95em" style="text-anchor: middle; visibility: inherit; font-family: Roboto, sans-serif; font-size: 12px; font-weight: 200;" fill="rgb(50, 49, 63)" stroke="none" stroke-width="1px">0</text><text x="53.609375" y="0" dx="0em" dy="0.95em" style="text-anchor: middle; visibility: inherit; font-family: Roboto, sans-serif; font-size: 12px; font-weight: 200;" fill="rgb(50, 49, 63)" stroke="none" stroke-width="1px">1k</text><text x="80.4140625" y="0" dx="0em" dy="0.95em" style="text-anchor: middle; visibility: inherit; font-family: Roboto, sans-serif; font-size: 12px; font-weight: 200;" fill="rgb(50, 49, 63)" stroke="none" stroke-width="1px">2k</text><text x="107.21875" y="0" dx="0em" dy="0.95em" style="text-anchor: middle; visibility: inherit; font-family: Roboto, sans-serif; font-size: 12px; font-weight: 200;" fill="rgb(50, 49, 63)" stroke="none" stroke-width="1px">3k</text><text x="134.0234375" y="0" dx="0em" dy="0.95em" style="text-anchor: middle; visibility: inherit; font-family: Roboto, sans-serif; font-size: 12px; font-weight: 200;" fill="rgb(50, 49, 63)" stroke="none" stroke-width="1px">4k</text><text x="160.828125" y="0" dx="0em" dy="0.95em" style="text-anchor: middle; visibility: inherit; font-family: Roboto, sans-serif; font-size: 12px; font-weight: 200;" fill="rgb(50, 49, 63)" stroke="none" stroke-width="1px">5k</text><text x="187.6328125" y="0" dx="0em" dy="0.95em" style="text-anchor: middle; visibility: inherit; font-family: Roboto, sans-serif; font-size: 12px; font-weight: 200;" fill="rgb(50, 49, 63)" stroke="none" stroke-width="1px">6k</text><text x="214.4375" y="0" dx="0em" dy="0.95em" style="text-anchor: middle; visibility: inherit; font-family: Roboto, sans-serif; font-size: 12px; font-weight: 200;" fill="rgb(50, 49, 63)" stroke="none" stroke-width="1px">7k</text><text x="241.2421875" y="0" dx="0em" dy="0.95em" style="text-anchor: middle; visibility: inherit; font-family: Roboto, sans-serif; font-size: 12px; font-weight: 200;" fill="rgb(50, 49, 63)" stroke="none" stroke-width="1px">8k</text><text x="268.046875" y="0" dx="0em" dy="0.95em" style="text-anchor: middle; visibility: hidden; font-family: Roboto, sans-serif; font-size: 12px; font-weight: 200;" fill="rgb(50, 49, 63)" stroke="none" stroke-width="1px">9k</text></g><line x1="0" y1="0" x2="268.046875" y2="0" fill="rgb(0, 0, 0)" stroke="rgb(204, 204, 204)" stroke-width="1px"></line></g></g></g></g></svg>